<?xml version="1.0" encoding="utf-8"?>
<!-- Generator: Adobe Illustrator 15.1.0, SVG Export Plug-In . SVG Version: 6.00 Build 0)  -->
<!DOCTYPE svg PUBLIC "-//W3C//DTD SVG 1.1//EN" "http://www.w3.org/Graphics/SVG/1.1/DTD/svg11.dtd">
<svg version="1.1" id="Layer_1" xmlns="http://www.w3.org/2000/svg" xmlns:xlink="http://www.w3.org/1999/xlink" x="0px" y="0px"
	 width="302px" height="35.693px" viewBox="0 0 302 35.693" enable-background="new 0 0 302 35.693" xml:space="preserve">
<g>
	<path fill="#636466" d="M20.78,15.82c-0.81-1.14-2.25-1.68-3.72-1.68c-1.74,0-3.48,0.78-3.48,2.73c0,4.26,10.08,1.829,10.08,9.389
		c0,4.561-3.6,6.78-7.77,6.78c-2.64,0-5.22-0.81-6.959-2.88l2.85-2.76c0.93,1.41,2.52,2.22,4.2,2.22c1.74,0,3.72-0.96,3.72-2.91
		c0-4.649-10.08-1.979-10.08-9.569c0-4.38,3.899-6.42,7.83-6.42c2.22,0,4.44,0.63,6.09,2.19L20.78,15.82z"/>
	<path fill="#636466" d="M25.311,18.101h3.9l3.12,10.079h0.06l2.91-10.079h3.9l3.12,10.079h0.06l3-10.079h3.63L44.12,32.5h-3.57
		l-3.42-9.84h-0.06l-3.03,9.84h-3.72L25.311,18.101z"/>
	<path fill="#636466" d="M52.97,11.051c1.32,0,2.34,0.93,2.34,2.16c0,1.229-1.02,2.16-2.34,2.16c-1.32,0-2.28-1.021-2.28-2.16
		S51.65,11.051,52.97,11.051z M51.201,18.101h3.6V32.5h-3.6V18.101z"/>
	<path fill="#636466" d="M78.35,21.16v-3.06h-3.96v-4.17h-3.6v4.17h-3.63h-1.34h-1.99v-2.61c0-1.59,0.3-2.97,2.31-2.97
		c0.51,0,0.99,0.09,1.5,0.21l0.24-3.06c-0.75-0.15-1.5-0.21-2.28-0.21c-4.47,0-5.37,2.61-5.37,6.6v2.04h-2.97v3.06h2.97V32.5h3.6
		V21.16h1.99h1.34h3.63v6.6c0,3.391,0.9,5.101,4.709,5.101c0.84,0,2.1-0.12,2.85-0.48v-3.029c-0.45,0.329-1.32,0.449-1.95,0.449
		c-1.59,0-2.01-0.899-2.01-2.34v-6.3H78.35z"/>
	<path fill="#636466" d="M84.05,26.561c0.24,2.13,1.86,3.42,3.87,3.42c1.8,0,2.97-0.84,3.87-1.95l2.58,1.95
		c-1.68,2.069-3.81,2.88-6.09,2.88c-4.35,0-7.83-3.03-7.83-7.56c0-4.53,3.48-7.561,7.83-7.561c4.02,0,6.75,2.82,6.75,7.83v0.99
		H84.05z M91.429,23.86c-0.03-2.1-1.41-3.42-3.66-3.42c-2.13,0-3.45,1.35-3.72,3.42H91.429z"/>
	<path fill="#636466" d="M98.39,18.101h3.6v2.28h0.06c0.78-1.65,2.37-2.641,4.26-2.641c0.45,0,0.87,0.091,1.29,0.21v3.48
		c-0.6-0.15-1.17-0.271-1.74-0.271c-3.39,0-3.87,2.851-3.87,3.63v7.71h-3.6V18.101z"/>
</g>
<g>
	<path fill="#636466" d="M123.037,21.91h1.092v4.944h0.028c0.294-0.518,1.079-1.078,2.101-1.078c1.723,0,2.493,1.093,2.493,2.676
		V32.5h-1.092v-3.937c0-1.092-0.477-1.778-1.499-1.778c-1.415,0-2.031,1.022-2.031,2.521V32.5h-1.092V21.91z"/>
	<path fill="#636466" d="M134.407,26.869h-1.933v3.277c0,0.841,0.014,1.513,0.98,1.513c0.322,0,0.672-0.069,0.967-0.224l0.042,0.994
		c-0.378,0.168-0.869,0.238-1.275,0.238c-1.555,0-1.807-0.84-1.807-2.199v-3.6h-1.429v-0.925h1.429v-1.863h1.093v1.863h1.933V26.869
		z"/>
	<path fill="#636466" d="M139.334,26.869h-1.933v3.277c0,0.841,0.014,1.513,0.98,1.513c0.322,0,0.672-0.069,0.967-0.224l0.042,0.994
		c-0.378,0.168-0.869,0.238-1.275,0.238c-1.555,0-1.807-0.84-1.807-2.199v-3.6h-1.429v-0.925h1.429v-1.863h1.093v1.863h1.933V26.869
		z"/>
	<path fill="#636466" d="M140.62,25.944h1.093v0.952h0.028c0.603-0.7,1.401-1.12,2.354-1.12c2.059,0,3.446,1.457,3.446,3.446
		c0,1.961-1.443,3.445-3.278,3.445c-1.177,0-2.115-0.588-2.521-1.331h-0.028v4.356h-1.093V25.944z M144.038,31.659
		c1.415,0,2.325-1.064,2.325-2.437c0-1.373-0.911-2.438-2.325-2.438c-1.415,0-2.325,1.064-2.325,2.438
		C141.713,30.595,142.623,31.659,144.038,31.659z"/>
	<path fill="#636466" d="M150.981,26.617c0,0.462-0.406,0.84-0.84,0.84c-0.435,0-0.841-0.378-0.841-0.84
		c0-0.463,0.378-0.841,0.841-0.841C150.603,25.776,150.981,26.154,150.981,26.617z M150.981,31.743c0,0.463-0.406,0.841-0.84,0.841
		c-0.435,0-0.841-0.378-0.841-0.841c0-0.462,0.378-0.84,0.841-0.84C150.603,30.903,150.981,31.281,150.981,31.743z"/>
	<path fill="#636466" d="M153.01,33.103l-0.882-0.351l4.216-10.758l0.883,0.336L153.01,33.103z"/>
	<path fill="#636466" d="M158.189,33.103l-0.882-0.351l4.216-10.758l0.883,0.336L158.189,33.103z"/>
	<path fill="#636466" d="M163.622,30.777c0.435,0.532,0.91,0.882,1.681,0.882c0.687,0,1.443-0.294,1.443-1.008
		c0-0.701-0.701-0.883-1.401-1.037c-1.247-0.28-2.312-0.546-2.312-1.905c0-1.274,1.232-1.933,2.451-1.933
		c0.926,0,1.779,0.351,2.228,1.19l-0.91,0.603c-0.28-0.462-0.743-0.784-1.387-0.784c-0.603,0-1.289,0.294-1.289,0.91
		c0,0.547,0.784,0.784,1.653,0.952c1.162,0.225,2.143,0.645,2.143,1.962c0,1.484-1.316,2.059-2.619,2.059
		c-1.106,0-1.904-0.294-2.549-1.219L163.622,30.777z"/>
	<path fill="#636466" d="M176.478,32.5h-1.079l-1.862-5.043h-0.028l-1.652,5.043h-1.121l-2.129-6.556h1.205l1.498,5.043h0.028
		l1.694-5.043h1.148l1.724,5.043h0.028l1.484-5.043h1.177L176.478,32.5z"/>
	<path fill="#636466" d="M180.464,22.583c0.448,0,0.799,0.364,0.799,0.798c0,0.463-0.337,0.799-0.799,0.799
		s-0.798-0.336-0.798-0.799C179.666,22.947,180.016,22.583,180.464,22.583z M179.918,25.944h1.092V32.5h-1.092V25.944z"/>
	<path fill="#636466" d="M183.74,26.869h-1.43v-0.925h1.43v-1.471c0-1.597,0.561-2.731,2.325-2.731c0.28,0,0.63,0.056,0.841,0.168
		l-0.154,0.98c-0.238-0.084-0.49-0.14-0.742-0.14c-1.135,0-1.178,0.826-1.178,1.961v1.232h1.598v0.925h-1.598V32.5h-1.092V26.869z"
		/>
	<path fill="#636466" d="M191.176,26.869h-1.934v3.277c0,0.841,0.015,1.513,0.98,1.513c0.322,0,0.673-0.069,0.967-0.224l0.043,0.994
		c-0.379,0.168-0.869,0.238-1.275,0.238c-1.555,0-1.807-0.84-1.807-2.199v-3.6h-1.43v-0.925h1.43v-1.863h1.092v1.863h1.934V26.869z"
		/>
	<path fill="#636466" d="M198.373,31.31c-0.771,0.994-1.695,1.358-2.914,1.358c-2.059,0-3.32-1.541-3.32-3.445
		c0-2.031,1.43-3.446,3.362-3.446c1.849,0,3.11,1.261,3.11,3.432v0.351h-5.295c0.084,1.135,0.952,2.101,2.143,2.101
		c0.938,0,1.568-0.336,2.088-0.994L198.373,31.31z M197.434,28.634c-0.041-1.106-0.77-1.849-1.975-1.849s-2.003,0.742-2.143,1.849
		H197.434z"/>
	<path fill="#636466" d="M200.301,27.499c0-0.603-0.056-1.12-0.056-1.555h1.036c0,0.351,0.028,0.715,0.028,1.079h0.028
		c0.294-0.645,1.106-1.247,2.186-1.247c0.14,0,0.293,0.014,0.447,0.07l-0.069,1.106c-0.183-0.057-0.393-0.084-0.589-0.084
		c-1.33,0-1.919,0.938-1.919,2.438V32.5h-1.093V27.499z"/>
	<path fill="#636466" d="M205.695,31.743c0,0.463-0.406,0.841-0.84,0.841c-0.436,0-0.842-0.378-0.842-0.841
		c0-0.462,0.379-0.84,0.842-0.84C205.316,30.903,205.695,31.281,205.695,31.743z"/>
	<path fill="#636466" d="M207.836,27.499c0-0.603-0.056-1.12-0.056-1.555h1.036c0,0.351,0.028,0.715,0.028,1.079h0.028
		c0.294-0.645,1.106-1.247,2.186-1.247c1.723,0,2.492,1.093,2.492,2.676V32.5h-1.092v-3.937c0-1.092-0.477-1.778-1.499-1.778
		c-1.415,0-2.031,1.022-2.031,2.521V32.5h-1.093V27.499z"/>
	<path fill="#636466" d="M215.536,26.785c0.673-0.687,1.653-1.009,2.605-1.009c1.933,0,2.745,0.925,2.745,2.773v2.815
		c0,0.378,0.042,0.799,0.098,1.135h-1.05c-0.07-0.294-0.07-0.7-0.07-0.98h-0.028c-0.434,0.672-1.162,1.148-2.156,1.148
		c-1.331,0-2.438-0.672-2.438-1.947c0-2.171,2.521-2.297,4.132-2.297h0.421v-0.196c0-0.952-0.604-1.442-1.625-1.442
		c-0.701,0-1.43,0.238-1.947,0.714L215.536,26.785z M218.701,29.349c-1.387,0-2.283,0.378-2.283,1.261
		c0,0.826,0.617,1.134,1.443,1.134c1.261,0,1.904-0.91,1.934-1.975v-0.42H218.701z"/>
	<path fill="#636466" d="M226.473,26.869h-1.934v3.277c0,0.841,0.014,1.513,0.98,1.513c0.322,0,0.672-0.069,0.967-0.224l0.042,0.994
		c-0.378,0.168-0.868,0.238-1.274,0.238c-1.555,0-1.808-0.84-1.808-2.199v-3.6h-1.429v-0.925h1.429v-1.863h1.093v1.863h1.934V26.869
		z"/>
	<path fill="#636466" d="M233.669,31.31c-0.771,0.994-1.694,1.358-2.913,1.358c-2.06,0-3.32-1.541-3.32-3.445
		c0-2.031,1.429-3.446,3.361-3.446c1.85,0,3.11,1.261,3.11,3.432v0.351h-5.295c0.084,1.135,0.952,2.101,2.144,2.101
		c0.938,0,1.568-0.336,2.087-0.994L233.669,31.31z M232.73,28.634c-0.042-1.106-0.771-1.849-1.975-1.849
		c-1.205,0-2.004,0.742-2.144,1.849H232.73z"/>
	<path fill="#636466" d="M240.263,27.583c-0.462-0.56-0.995-0.798-1.653-0.798c-1.471,0-2.213,1.093-2.213,2.438
		s0.883,2.437,2.213,2.437c0.715,0,1.262-0.252,1.667-0.812l0.812,0.771c-0.63,0.729-1.526,1.051-2.479,1.051
		c-2.031,0-3.39-1.429-3.39-3.445c0-1.989,1.373-3.446,3.39-3.446c0.967,0,1.863,0.322,2.521,1.036L240.263,27.583z"/>
	<path fill="#636466" d="M245.47,25.776c2.017,0,3.502,1.4,3.502,3.446c0,2.045-1.485,3.445-3.502,3.445s-3.502-1.4-3.502-3.445
		C241.968,27.177,243.453,25.776,245.47,25.776z M245.47,31.659c1.415,0,2.325-1.064,2.325-2.437c0-1.373-0.91-2.438-2.325-2.438
		s-2.325,1.064-2.325,2.438C243.145,30.595,244.055,31.659,245.47,31.659z"/>
	<path fill="#636466" d="M253.785,25.776c2.018,0,3.502,1.4,3.502,3.446c0,2.045-1.484,3.445-3.502,3.445s-3.502-1.4-3.502-3.445
		C250.283,27.177,251.768,25.776,253.785,25.776z M253.785,31.659c1.415,0,2.325-1.064,2.325-2.437c0-1.373-0.91-2.438-2.325-2.438
		c-1.414,0-2.325,1.064-2.325,2.438C251.46,30.595,252.371,31.659,253.785,31.659z"/>
	<path fill="#636466" d="M258.979,21.91h1.092v6.92l2.984-2.886h1.555l-3.166,2.983l3.488,3.572h-1.611l-3.25-3.446V32.5h-1.092
		V21.91z"/>
	<path fill="#636466" d="M267.729,31.743c0,0.463-0.406,0.841-0.84,0.841c-0.435,0-0.841-0.378-0.841-0.841
		c0-0.462,0.378-0.84,0.841-0.84C267.351,30.903,267.729,31.281,267.729,31.743z"/>
	<path fill="#636466" d="M274.534,27.583c-0.462-0.56-0.995-0.798-1.653-0.798c-1.471,0-2.213,1.093-2.213,2.438
		s0.883,2.437,2.213,2.437c0.715,0,1.262-0.252,1.667-0.812l0.812,0.771c-0.63,0.729-1.526,1.051-2.479,1.051
		c-2.031,0-3.39-1.429-3.39-3.445c0-1.989,1.373-3.446,3.39-3.446c0.967,0,1.863,0.322,2.521,1.036L274.534,27.583z"/>
	<path fill="#636466" d="M279.741,25.776c2.017,0,3.502,1.4,3.502,3.446c0,2.045-1.485,3.445-3.502,3.445s-3.502-1.4-3.502-3.445
		C276.239,27.177,277.725,25.776,279.741,25.776z M279.741,31.659c1.415,0,2.325-1.064,2.325-2.437c0-1.373-0.91-2.438-2.325-2.438
		s-2.325,1.064-2.325,2.438C277.416,30.595,278.326,31.659,279.741,31.659z"/>
	<path fill="#636466" d="M284.934,27.499c0-0.603-0.057-1.12-0.057-1.555h1.037c0,0.351,0.027,0.715,0.027,1.079h0.029
		c0.293-0.645,1.105-1.247,2.185-1.247c1.415,0,1.862,0.799,2.073,1.247c0.477-0.771,1.078-1.247,2.073-1.247
		c1.877,0,2.493,1.051,2.493,2.745V32.5h-1.093v-3.922c0-0.911-0.322-1.793-1.597-1.793c-0.925,0-1.695,0.756-1.695,1.933V32.5
		h-1.092v-3.712c0-1.442-0.365-2.003-1.262-2.003c-1.414,0-2.03,1.022-2.03,2.521V32.5h-1.093V27.499z"/>
	<path fill="#636466" d="M296.749,33.103l-0.882-0.351l4.216-10.758l0.882,0.336L296.749,33.103z"/>
</g>
</svg>
